<?xml version='1.0' encoding='utf8'?>
<svg class="toyplot-canvas-Canvas" xmlns:toyplot="http://www.sandia.gov/toyplot" xmlns:xlink="http://www.w3.org/1999/xlink" xmlns="http://www.w3.org/2000/svg" width="1000.0px" height="360.0px" viewBox="0 0 1000.0 360.0" preserveAspectRatio="xMidYMid meet" style="background-color:transparent;border-color:#292724;border-style:none;border-width:1.0;fill:rgb(16.1%,15.3%,14.1%);fill-opacity:1.0;font-family:Helvetica;font-size:12px;opacity:1.0;stroke:rgb(16.1%,15.3%,14.1%);stroke-opacity:1.0;stroke-width:1.0" id="t74cf70aa3155426d8aa5a5a7916a8f3d"><g class="toyplot-coordinates-Cartesian" id="t9144d35b701c41ec93abb70c048e9285"><clipPath id="tcce4c0e0648e4a73955864d5df12bcf5"><rect x="30.0" y="30.0" width="940.0" height="300.0" /></clipPath><g clip-path="url(#tcce4c0e0648e4a73955864d5df12bcf5)"><g class="toytree-mark-Toytree" id="t5d100cc1ecf543c6918a707c88f73501"><g class="toytree-Edges" style="fill:none;stroke:rgb(14.9%,14.9%,14.9%);stroke-linecap:round;stroke-opacity:1;stroke-width:2"><path d="M 51.5 140.7 L 51.5 91.1 L 447.5 91.1" id="26,25" /><path d="M 51.5 140.7 L 51.5 190.3 L 292.0 190.3" id="26,24" /><path d="M 447.5 91.1 L 447.5 70.6 L 685.1 70.6" id="25,23" /><path d="M 447.5 91.1 L 447.5 111.6 L 665.7 111.6" id="25,22" /><path d="M 292.0 190.3 L 292.0 161.8 L 695.3 161.8" id="24,21" /><path d="M 292.0 190.3 L 292.0 218.7 L 520.9 218.7" id="24,20" /><path d="M 665.7 111.6 L 665.7 125.3 L 679.2 125.3" id="22,19" /><path d="M 520.9 218.7 L 520.9 248.4 L 546.9 248.4" id="20,18" /><path d="M 546.9 248.4 L 546.9 221.0 L 609.9 221.0" id="18,17" /><path d="M 546.9 248.4 L 546.9 275.7 L 621.5 275.7" id="18,16" /><path d="M 609.9 221.0 L 609.9 234.7 L 689.7 234.7" id="17,15" /><path d="M 621.5 275.7 L 621.5 289.4 L 679.0 289.4" id="16,14" /><path d="M 685.1 70.6 L 685.1 61.5 L 707.5 61.5" id="23,13" /><path d="M 685.1 70.6 L 685.1 79.7 L 707.5 79.7" id="23,12" /><path d="M 665.7 111.6 L 665.7 98.0 L 707.5 98.0" id="22,11" /><path d="M 679.2 125.3 L 679.2 116.2 L 707.5 116.2" id="19,10" /><path d="M 679.2 125.3 L 679.2 134.4 L 707.5 134.4" id="19,9" /><path d="M 695.3 161.8 L 695.3 152.7 L 707.5 152.7" id="21,8" /><path d="M 695.3 161.8 L 695.3 170.9 L 707.5 170.9" id="21,7" /><path d="M 520.9 218.7 L 520.9 189.1 L 707.5 189.1" id="20,6" /><path d="M 609.9 221.0 L 609.9 207.3 L 707.5 207.3" id="17,5" /><path d="M 689.7 234.7 L 689.7 225.6 L 707.5 225.6" id="15,4" /><path d="M 689.7 234.7 L 689.7 243.8 L 707.5 243.8" id="15,3" /><path d="M 621.5 275.7 L 621.5 262.0 L 707.5 262.0" id="16,2" /><path d="M 679.0 289.4 L 679.0 280.3 L 707.5 280.3" id="14,1" /><path d="M 679.0 289.4 L 679.0 298.5 L 707.5 298.5" id="14,0" /></g><g class="toytree-AlignEdges" style="stroke:rgb(66.3%,66.3%,66.3%);stroke-dasharray:2, 4;stroke-linecap:round;stroke-opacity:1.0;stroke-width:2"><path d="M 707.5 298.5 L 707.5 298.5" /><path d="M 707.5 280.3 L 707.5 280.3" /><path d="M 707.5 262.0 L 707.5 262.0" /><path d="M 707.5 243.8 L 707.5 243.8" /><path d="M 707.5 225.6 L 707.5 225.6" /><path d="M 707.5 207.3 L 707.5 207.3" /><path d="M 707.5 189.1 L 707.5 189.1" /><path d="M 707.5 170.9 L 707.5 170.9" /><path d="M 707.5 152.7 L 707.5 152.7" /><path d="M 707.5 134.4 L 707.5 134.4" /><path d="M 707.5 116.2 L 707.5 116.2" /><path d="M 707.5 98.0 L 707.5 98.0" /><path d="M 707.5 79.7 L 707.5 79.7" /><path d="M 707.5 61.5 L 707.5 61.5" /></g><g class="toytree-TipLabels" style="fill:rgb(14.9%,14.9%,14.9%);fill-opacity:1.0;font-family:helvetica;font-size:11px;font-weight:normal;stroke:none;white-space:pre"><g transform="translate(707.51,298.51)rotate(0)"><a href="https://glottolog.org/resource/languoid/id/tobo1251#############"><text x="15.00" y="2.81" style="" fill="#0000ff">tobo - Tobo [tobo1251#############]</text></a></g><g transform="translate(707.51,280.28)rotate(0)"><a href="https://glottolog.org/resource/languoid/id/kube1244#############"><text x="15.00" y="2.81" style="" fill="#0000ff">kube - Kulungtfu-Yuanggeng-Tobo [kube1244#############]</text></a></g><g transform="translate(707.51,262.05)rotate(0)"><a href="https://glottolog.org/resource/languoid/id/dedu1240#############"><text x="15.00" y="2.81" style="" fill="#0000ff">dedua - Dedua [dedu1240#############]</text></a></g><g transform="translate(707.51,243.81)rotate(0)"><a href="https://glottolog.org/resource/languoid/id/buru1306#############"><text x="15.00" y="2.81" style="" fill="#0000ff">mindik - Burum-Mindik [buru1306#############]</text></a></g><g transform="translate(707.51,225.58)rotate(0)"><a href="https://glottolog.org/resource/languoid/id/buru1306#############"><text x="15.00" y="2.81" style="" fill="#0000ff">burum - Burum-Mindik [buru1306#############]</text></a></g><g transform="translate(707.51,207.35)rotate(0)"><a href="https://glottolog.org/resource/languoid/id/boro1279#############"><text x="15.00" y="2.81" style="" fill="#0000ff">borong - Borong [boro1279#############]</text></a></g><g transform="translate(707.51,189.12)rotate(0)"><a href="https://glottolog.org/resource/languoid/id/onoo1246#############"><text x="15.00" y="2.81" style="" fill="#0000ff">ono - Ono [onoo1246#############]</text></a></g><g transform="translate(707.51,170.88)rotate(0)"><a href="https://glottolog.org/resource/languoid/id/mape1249#############"><text x="15.00" y="2.81" style="" fill="#0000ff">mape - Mape [mape1249#############]</text></a></g><g transform="translate(707.51,152.65)rotate(0)"><a href="https://glottolog.org/resource/languoid/id/kate1253#############"><text x="15.00" y="2.81" style="" fill="#0000ff">kate - Kâte [kate1253#############]</text></a></g><g transform="translate(707.51,134.42)rotate(0)"><a href="https://glottolog.org/resource/languoid/id/sele1250#############"><text x="15.00" y="2.81" style="" fill="#0000ff">selepet - Selepet [sele1250#############]</text></a></g><g transform="translate(707.51,116.19)rotate(0)"><a href="https://glottolog.org/resource/languoid/id/komb1273#############"><text x="15.00" y="2.81" style="" fill="#0000ff">komba - Komba [komb1273#############]</text></a></g><g transform="translate(707.51,97.95)rotate(0)"><a href="https://glottolog.org/resource/languoid/id/timb1251#############"><text x="15.00" y="2.81" style="" fill="#0000ff">timbe - Timbe [timb1251#############]</text></a></g><g transform="translate(707.51,79.72)rotate(0)"><a href="https://glottolog.org/resource/languoid/id/naba1256#############"><text x="15.00" y="2.81" style="" fill="#0000ff">nabak - Nabak [naba1256#############]</text></a></g><g transform="translate(707.51,61.49)rotate(0)"><a href="https://glottolog.org/resource/languoid/id/mese1244#############"><text x="15.00" y="2.81" style="" fill="#0000ff">mesem - Mese [mese1244#############]</text></a></g></g></g></g><g class="toyplot-coordinates-Axis" id="t428981e715ad4f42971fd106c1b9db56" transform="translate(50.0,310.0)translate(0,20.0)"><line x1="1.4578900605104612" y1="0" x2="657.508417290252" y2="0" style="" /><g><line x1="657.508417290252" y1="0" x2="657.508417290252" y2="-5" style="" /><line x1="584.6139142647252" y1="0" x2="584.6139142647252" y2="-5" style="" /><line x1="511.71941123919834" y1="0" x2="511.71941123919834" y2="-5" style="" /><line x1="438.82490821367156" y1="0" x2="438.82490821367156" y2="-5" style="" /><line x1="365.9304051881447" y1="0" x2="365.9304051881447" y2="-5" style="" /><line x1="293.03590216261784" y1="0" x2="293.03590216261784" y2="-5" style="" /><line x1="220.14139913709099" y1="0" x2="220.14139913709099" y2="-5" style="" /><line x1="147.2468961115641" y1="0" x2="147.2468961115641" y2="-5" style="" /><line x1="74.35239308603728" y1="0" x2="74.35239308603728" y2="-5" style="" /><line x1="1.4578900605104612" y1="0" x2="1.4578900605104612" y2="-5" style="" /></g><g><g transform="translate(657.508417290252,6)"><text x="-6.95" y="8.555" style="fill:rgb(16.1%,15.3%,14.1%);fill-opacity:1.0;font-family:helvetica;font-size:10.0px;font-weight:normal;stroke:none;vertical-align:baseline;white-space:pre">0.0</text></g><g transform="translate(584.6139142647252,6)"><text x="-6.95" y="8.555" style="fill:rgb(16.1%,15.3%,14.1%);fill-opacity:1.0;font-family:helvetica;font-size:10.0px;font-weight:normal;stroke:none;vertical-align:baseline;white-space:pre">0.2</text></g><g transform="translate(511.71941123919834,6)"><text x="-6.95" y="8.555" style="fill:rgb(16.1%,15.3%,14.1%);fill-opacity:1.0;font-family:helvetica;font-size:10.0px;font-weight:normal;stroke:none;vertical-align:baseline;white-space:pre">0.4</text></g><g transform="translate(438.82490821367156,6)"><text x="-6.95" y="8.555" style="fill:rgb(16.1%,15.3%,14.1%);fill-opacity:1.0;font-family:helvetica;font-size:10.0px;font-weight:normal;stroke:none;vertical-align:baseline;white-space:pre">0.5</text></g><g transform="translate(365.9304051881447,6)"><text x="-6.95" y="8.555" style="fill:rgb(16.1%,15.3%,14.1%);fill-opacity:1.0;font-family:helvetica;font-size:10.0px;font-weight:normal;stroke:none;vertical-align:baseline;white-space:pre">0.7</text></g><g transform="translate(293.03590216261784,6)"><text x="-6.95" y="8.555" style="fill:rgb(16.1%,15.3%,14.1%);fill-opacity:1.0;font-family:helvetica;font-size:10.0px;font-weight:normal;stroke:none;vertical-align:baseline;white-space:pre">0.9</text></g><g transform="translate(220.14139913709099,6)"><text x="-6.95" y="8.555" style="fill:rgb(16.1%,15.3%,14.1%);fill-opacity:1.0;font-family:helvetica;font-size:10.0px;font-weight:normal;stroke:none;vertical-align:baseline;white-space:pre">1.1</text></g><g transform="translate(147.2468961115641,6)"><text x="-6.95" y="8.555" style="fill:rgb(16.1%,15.3%,14.1%);fill-opacity:1.0;font-family:helvetica;font-size:10.0px;font-weight:normal;stroke:none;vertical-align:baseline;white-space:pre">1.2</text></g><g transform="translate(74.35239308603728,6)"><text x="-6.95" y="8.555" style="fill:rgb(16.1%,15.3%,14.1%);fill-opacity:1.0;font-family:helvetica;font-size:10.0px;font-weight:normal;stroke:none;vertical-align:baseline;white-space:pre">1.4</text></g><g transform="translate(1.4578900605104612,6)"><text x="-6.95" y="8.555" style="fill:rgb(16.1%,15.3%,14.1%);fill-opacity:1.0;font-family:helvetica;font-size:10.0px;font-weight:normal;stroke:none;vertical-align:baseline;white-space:pre">1.6</text></g></g><g class="toyplot-coordinates-Axis-coordinates" style="visibility:hidden" transform=""><line x1="0" x2="0" y1="-3.0" y2="4.5" style="stroke:rgb(43.9%,50.2%,56.5%);stroke-opacity:1.0;stroke-width:1.0" /><text x="0" y="-6" style="alignment-baseline:alphabetic;fill:rgb(43.9%,50.2%,56.5%);fill-opacity:1.0;font-size:10px;font-weight:normal;stroke:none;text-anchor:middle" /></g></g><g transform="translate(500.0,42.0)"><text x="-304.99" y="-4.823" style="fill:rgb(16.1%,15.3%,14.1%);fill-opacity:1.0;font-family:helvetica;font-size:14.0px;font-weight:bold;stroke:none;vertical-align:baseline;white-space:pre">Summary tree of a Bayesian analysis of the Huon Peninsula family with branches in change</text></g></g></svg>